# xmcd
#
# Track frame offsets: 
#        150
#        14221
#        28415
#        41705
#        53731
#        72623
#        88222
#        104288
#        123507
#        141541
#        160914
#        176032
#        191253
#        204710
#        220956
#        239599
#        257419
#        277578
#
# Disc length: 3895 seconds
#
# Revision: 2
# Processed by: cddbd v1.5.2PL0 Copyright (c) Steve Scherf et al.
# Submitted via: ExactAudioCopy v0.95b4
#
DISCID=1a0f3512
DTITLE=Various Artist - Best of Line Dance - CD 1
DYEAR=2017
DGENRE=Country
TTITLE0=The Nashvill Riders - I Like It, I Love It
TTITLE1=The Nashvill Riders - Cotton Eye Joe
TTITLE2=The Nashvill Riders - Little Miss Honky Tonk
TTITLE3=The Nashvill Riders - I Try To Think About Elvis
TTITLE4=The Nashvill Riders - Whose Bed Have Your Boots Been Under
TTITLE5=The Nashvill Riders - God Blessed Texas
TTITLE6=The Nashvill Riders - Old Pop In An Oak
TTITLE7=The Nashvill Riders - Banjo
TTITLE8=The Nashvill Riders - Honky Tonk Badonkadonk
TTITLE9=The Nashvill Riders - Dance The Night Away
TTITLE10=The Nashvill Riders - Five, Six, Seven, Eight
TTITLE11=The Nashvill Riders - Achy Breaky Heart
TTITLE12=The Nashvill Riders - There's Your Trouble
TTITLE13=The Nashvill Riders - Don't Be Stupid (You Know I Love You)
TTITLE14=The Nashvill Riders - Who's Cheating Who
TTITLE15=The Nashvill Riders - Southern Voice
TTITLE16=The Nashvill Riders - Life Is A Highway
TTITLE17=The Nashvill Riders - Good Ride Cowboy
EXTD=
EXTT0=
EXTT1=
EXTT2=
EXTT3=
EXTT4=
EXTT5=
EXTT6=
EXTT7=
EXTT8=
EXTT9=
EXTT10=
EXTT11=
EXTT12=
EXTT13=
EXTT14=
EXTT15=
EXTT16=
EXTT17=
PLAYORDER=
